<?xml version="1.0" standalone="no"?>
<!DOCTYPE svg PUBLIC "-//W3C//DTD SVG 20010904//EN"
 "http://www.w3.org/TR/2001/REC-SVG-20010904/DTD/svg10.dtd">
<svg version="1.0" xmlns="http://www.w3.org/2000/svg"
 width="160.000000pt" height="160.000000pt" viewBox="0 0 160.000000 160.000000"
 preserveAspectRatio="xMidYMid meet">
<metadata>
Created by potrace 1.11, written by Peter Selinger 2001-2013
</metadata>
<g transform="translate(0.000000,160.000000) scale(0.100000,-0.100000)"
fill="#000000" stroke="none">
<path d="M1150 1136 c-40 -27 -87 -106 -104 -175 -11 -42 -15 -46 -46 -49 -18
-2 -44 2 -57 9 -40 21 -51 112 -17 140 18 15 18 29 0 29 -23 0 -66 -40 -87
-83 -30 -58 -28 -106 7 -135 26 -23 34 -24 105 -19 73 6 77 5 72 -14 -4 -14
-12 -18 -32 -16 -36 6 -75 -16 -108 -60 -25 -32 -28 -45 -28 -107 0 -102 30
-140 109 -138 15 0 38 10 50 21 21 20 21 20 48 -4 21 -18 37 -23 62 -21 36 4
106 41 106 56 0 19 -22 21 -40 5 -24 -22 -47 -13 -61 22 -20 51 -11 294 11
301 36 13 121 81 139 112 60 107 -30 194 -129 126z m110 -70 c0 -23 -54 -87
-90 -106 -27 -14 -26 3 1 55 23 46 66 88 80 80 5 -4 9 -16 9 -29z m-240 -361
c0 -98 -20 -156 -46 -134 -22 18 -31 69 -21 124 8 46 38 95 59 95 4 0 8 -38 8
-85z"/>
<path d="M495 976 c-31 -31 -31 -41 -1 -61 19 -13 28 -13 49 -4 33 15 38 30
23 60 -16 33 -41 35 -71 5z"/>
<path d="M345 950 c-15 -16 -17 -25 -9 -38 27 -42 102 -15 85 31 -11 30 -52
34 -76 7z"/>
<path d="M1418 890 c-47 -13 -115 -68 -127 -101 -11 -32 -2 -65 23 -81 18 -12
67 -9 121 7 43 14 51 14 64 0 18 -18 12 -24 -25 -30 -123 -20 -155 -29 -179
-51 -48 -44 -10 -113 66 -121 68 -7 127 28 159 94 19 39 32 53 53 58 35 8 30
31 -6 27 -23 -3 -27 0 -27 20 0 51 -53 82 -117 67 -47 -10 -41 6 10 26 59 24
69 33 57 56 -15 27 -41 37 -72 29z m82 -247 c0 -7 -13 -27 -28 -44 -35 -40
-86 -43 -115 -8 -23 28 -15 35 58 52 75 17 85 17 85 0z"/>
<path d="M18 863 c-14 -17 -21 -221 -11 -296 6 -42 30 -61 67 -51 23 5 24 9
19 57 -6 61 9 124 39 162 30 38 39 17 34 -86 -2 -46 1 -94 7 -106 13 -30 45
-35 87 -15 37 18 49 49 17 44 -17 -3 -18 2 -12 60 15 137 14 169 -5 188 -36
36 -112 9 -151 -53 l-20 -32 6 40 c4 22 9 47 11 56 9 35 -64 61 -88 32z"/>
<path d="M611 871 c-19 -12 -32 -104 -30 -209 2 -128 5 -139 35 -146 41 -11
59 7 55 54 -3 50 25 143 50 166 25 22 37 10 16 -14 -36 -40 -4 -82 43 -59 58
29 91 134 54 171 -35 36 -88 12 -135 -62 -31 -49 -35 -50 -18 -5 17 45 18 81
4 93 -16 14 -59 20 -74 11z"/>
<path d="M1196 857 c-13 -10 -19 -32 -23 -80 -3 -37 -2 -67 3 -67 20 0 34 18
49 60 9 24 23 52 31 61 9 10 13 23 9 28 -9 15 -47 14 -69 -2z"/>
<path d="M419 823 c-71 -30 -109 -85 -110 -161 -3 -106 69 -162 177 -138 32 7
82 51 71 62 -3 3 -20 -4 -37 -16 -26 -19 -36 -21 -56 -11 -29 13 -44 43 -25
49 23 8 82 64 96 92 25 49 26 78 1 106 -26 31 -69 37 -117 17z m58 -60 c-6
-49 -21 -85 -41 -102 -25 -21 -29 -7 -16 51 16 67 27 88 46 88 12 0 15 -8 11
-37z"/>
</g>
</svg>
